<svg xmlns="http://www.w3.org/2000/svg" xmlns:xlink="http://www.w3.org/1999/xlink" viewBox="0 0 1541.23 252.56"><defs><style>.cls-1{fill:none;}.cls-2{clip-path:url(#clip-path);}.cls-3{clip-path:url(#clip-path-2);}.cls-4{fill:#444;}.cls-5{clip-path:url(#clip-path-3);}.cls-6{fill:#888;}.cls-7{fill:#6ac7b9;}</style><clipPath id="clip-path" transform="translate(-19.97 -5.33)"><rect class="cls-1" width="1600" height="269.4"/></clipPath><clipPath id="clip-path-2" transform="translate(-19.97 -5.33)"><rect class="cls-1" x="41.51" y="31.72" width="1558.49" height="237.68"/></clipPath><clipPath id="clip-path-3" transform="translate(-19.97 -5.33)"><rect class="cls-1" x="19.97" y="5.33" width="256.35" height="252.56"/></clipPath></defs><g id="Layer_2" data-name="Layer 2"><g id="Layer_1-2" data-name="Layer 1"><g id="Artwork_5" data-name="Artwork 5"><g class="cls-2"><g class="cls-3"><path class="cls-7" d="M573.63,109.64H593c10.37,0,17.49-1.36,21.41-4.06a15.35,15.35,0,0,0,5.82-13.53,16.46,16.46,0,0,0-2.89-9.73,16.13,16.13,0,0,0-7.75-5.95,58.64,58.64,0,0,0-18-1.81h-18ZM541.08,42.87h43.64q28.31,0,40.57,5a41.53,41.53,0,0,1,19.34,16.81,51.47,51.47,0,0,1,7.3,27.77,47.32,47.32,0,0,1-8.07,28.17,49.1,49.1,0,0,1-24.34,17.13l40.56,76H624.52l-38.45-72.4H573.94v72.4H541.08Z" transform="translate(-19.97 -5.33)"/><path class="cls-7" d="M742.49,42.87h32.64V153.36a57.55,57.55,0,0,0,2.52,20.24A20.12,20.12,0,0,0,785.9,183a25.56,25.56,0,0,0,13.89,3.56,26.63,26.63,0,0,0,14.78-4,20.67,20.67,0,0,0,8.61-10,75.38,75.38,0,0,0,2.39-23.31V42.87h32.64V144.75a148.27,148.27,0,0,1-2.89,35.79,50.71,50.71,0,0,1-11.09,19.3,51.74,51.74,0,0,1-18.88,13.52,64.25,64.25,0,0,1-24.89,4.51,60.28,60.28,0,0,1-32.36-8.57,49.76,49.76,0,0,1-19.7-21.36q-5.91-12.85-5.91-43.41Z" transform="translate(-19.97 -5.33)"/><polygon class="cls-7" points="936.68 37.54 1021.52 37.54 1021.52 69.23 969.01 69.23 969.01 100.24 1021.52 100.24 1021.52 131.53 969.01 131.53 969.01 208.43 936.68 208.43 936.68 37.54"/><polygon class="cls-7" points="1111.59 37.54 1196.38 37.54 1196.38 69.23 1143.86 69.23 1143.86 100.24 1196.38 100.24 1196.38 131.53 1143.86 131.53 1143.86 208.43 1111.59 208.43 1111.59 37.54"/><polygon class="cls-7" points="1286.13 37.54 1318.68 37.54 1318.68 177.42 1366.05 177.42 1366.05 208.43 1286.13 208.43 1286.13 37.54"/><polygon class="cls-7" points="1447.96 37.54 1541.23 37.54 1541.23 69.36 1480.24 69.36 1480.24 100.24 1541.23 100.24 1541.23 131.53 1480.24 131.53 1480.24 176.47 1541.23 176.47 1541.23 208.43 1447.96 208.43 1447.96 37.54"/><polygon class="cls-7" points="344.9 37.54 439.38 37.54 439.38 69.59 408.23 69.59 408.23 208.43 375.24 208.43 375.24 69.59 344.9 69.59 344.9 37.54"/></g><g class="cls-5"><path class="cls-4" d="M147.52,5.33c68.93,0,124.82,56.54,124.82,126.28S216.45,257.9,147.52,257.9,22.7,201.36,22.7,131.61,78.58,5.33,147.52,5.33" transform="translate(-19.97 -5.33)"/><path class="cls-6" d="M108.27,243.59c5.08,1.74,22.27,7.32,23,1.87.4-3-8.61-6.06-20.91-12.55A196.44,196.44,0,0,1,63,198a108.6,108.6,0,0,1-32.51-75.49c-1-38.2,14-69.09,38.47-89a125.92,125.92,0,0,0-49,96.61c-.73,27.67,7,50.92,21.52,72.13a81.46,81.46,0,0,0,15.67,15.42c13.9,10.53,34.23,20.26,51.06,26" transform="translate(-19.97 -5.33)"/><path class="cls-6" d="M274.65,102.54c-7.75-36.4-31.76-61.89-64-79.89,24.6,17.53,59.24,54.77,38.83,87.64-17.33,26.34-59.41,21.18-82.41,8.71-27.28-14.88-61.58-48.27-27.82-80.9,21.88-21.12,91.54,2.54,79.24,34.13-7.16,18.35-35,14.27-47.48,5.29-9.22-6.62-17-18-12.88-29.77,1.27-3.81,1.13-9.61-4.19-5.31-4,3.22-6,8.51-6.67,13.43-5.82,41.17,67.46,73.06,89.27,33.24,11.29-20.67-7-50.65-30-63-17.35-9.27-35.34-15.78-57.42-14.2-35.29,2.54-64.93,24.61-68.59,60.68C76.83,108.42,100.76,140.73,129,160c29.64,20.32,69.55,33.65,106.06,21.6,32.7-10.85,46.22-48.4,39.64-79.05" transform="translate(-19.97 -5.33)"/><path class="cls-4" d="M228,74.79C231.53,51.2,210.24,35,190.51,27.65,167.29,19,136.62,22.77,119.72,42c-12.41,14.12-11.56,34.63-5.2,51.2,9.64,25.07,31.42,43.18,56.77,51,18,5.55,39.77,8,58,2.1,26.61-8.56,35.27-36.32,29.77-61.75a74,74,0,0,0-5.38-15.93c-3.37-7-13.67-21.34.53-3.94a63.89,63.89,0,0,1,4.1,6.07,67,67,0,0,1,6.91,15.35c7.74,23.74,1.67,51.44-19.82,65.75-16.52,11-37.39,12.29-56.47,9.54-25.61-3.66-49.74-16.13-66.47-36-15.32-18.13-25.76-44.18-19.46-68C107.64,40,121.79,27,138.72,21.5c21.43-6.93,45-3.72,64.32,7.55,9.66,5.64,18.5,13.43,23.42,23.64A34.88,34.88,0,0,1,230,67.43a30.64,30.64,0,0,1-.48,6.2c-.14.74-1.7,2.83-1.49,1.11" transform="translate(-19.97 -5.33)"/></g></g></g></g></g></svg>
